<svg width="288" height="288" viewBox="0 0 288 288" fill="none" xmlns="http://www.w3.org/2000/svg">
<circle cx="144" cy="144" r="144" fill="#FFA800" fill-opacity="0.7"/>
<g clip-path="url(#clip0_109_24)">
<path d="M146.391 101.814C122.482 101.814 103.031 120.739 103.031 144.001C103.031 167.263 122.482 186.188 146.391 186.188C170.299 186.188 189.75 167.263 189.75 144.001C189.75 120.739 170.299 101.814 146.391 101.814ZM146.391 180.563C125.671 180.563 108.812 164.161 108.812 144.001C108.812 123.842 125.671 107.439 146.391 107.439C167.111 107.439 183.969 123.842 183.969 144.001C183.969 164.161 167.111 180.563 146.391 180.563Z" fill="black"/>
<path d="M146.391 82.1274C111.324 82.1274 82.7969 109.884 82.7969 144.001C82.7969 178.119 111.324 205.876 146.391 205.876C181.457 205.876 209.984 178.119 209.984 144.001C209.984 109.884 181.457 82.1274 146.391 82.1274ZM146.391 200.251C114.513 200.251 88.5781 175.017 88.5781 144.001C88.5781 112.986 114.513 87.7524 146.391 87.7524C178.268 87.7524 204.203 112.986 204.203 144.001C204.203 175.017 178.268 200.251 146.391 200.251Z" fill="black"/>
<path d="M233.109 54.0027C228.383 54.0027 224.316 57.4339 223.651 61.9844L212.907 135.165C212.779 136.039 213.08 136.922 213.719 137.547L218.656 142.37V225.56C218.656 230.211 222.547 233.997 227.328 233.997C232.109 233.997 236 230.211 236 225.56V56.8123C236 55.2599 234.705 54.0027 233.109 54.0027ZM230.219 225.562C230.219 227.112 228.921 228.375 227.328 228.375C225.735 228.375 224.437 227.112 224.437 225.562V141.209C224.437 140.463 224.134 139.752 223.593 139.223L218.829 134.568L229.369 62.7775C229.473 62.0829 229.773 61.4529 230.216 60.9438V225.562H230.219Z" fill="black"/>
<path d="M91.4688 95.5231V56.8153C91.4688 55.4063 90.3934 54.211 88.9568 54.0281C87.5144 53.8369 86.1645 54.72 85.7858 56.0841L78.9321 80.859L74.073 56.2837C73.8128 54.9591 72.619 54.0028 71.2344 54.0028C69.8498 54.0028 68.6559 54.9591 68.3958 56.2837L63.5366 80.859L56.6801 56.0812C56.3014 54.7172 54.9428 53.8369 53.512 54.0253C52.0753 54.211 51 55.4034 51 56.8153V95.5259C51 100.479 53.827 104.928 58.3798 107.144C60.9582 108.396 62.5625 110.921 62.5625 113.728V225.262C62.5625 229.525 65.6728 233.232 69.7977 233.885C70.2718 233.961 70.7487 233.997 71.2199 233.997C73.2752 233.997 75.2726 233.297 76.8509 231.989C78.7934 230.383 79.9062 228.04 79.9062 225.563V113.728C79.9062 110.921 81.5105 108.396 84.089 107.141C88.6417 104.925 91.4688 100.476 91.4688 95.5231ZM81.5048 102.11C76.952 104.326 74.125 108.775 74.125 113.728V225.563C74.125 226.39 73.755 227.171 73.1046 227.706C72.4455 228.249 71.6015 228.468 70.7256 228.336C69.3902 228.122 68.3438 226.772 68.3438 225.262V113.728C68.3438 108.775 65.5167 104.326 60.964 102.11C58.3855 100.856 56.7812 98.33 56.7812 95.5231V78.0803L61.2155 94.1085C61.5652 95.3741 62.7388 96.2009 64.1119 96.1897C65.456 96.1419 66.5891 95.1969 66.8435 93.9088L71.2344 71.7072L75.6223 93.9088C75.8767 95.1969 77.0098 96.1391 78.354 96.1897C79.6952 96.2094 80.9006 95.3741 81.2504 94.1085L85.6875 78.0803V95.5259C85.6875 98.33 84.0832 100.856 81.5048 102.11Z" fill="black"/>
<path d="M146.391 158.064H140.609V163.689H146.391V158.064Z" fill="black"/>
<path d="M157.953 158.064H152.172V163.689H157.953V158.064Z" fill="black"/>
<path d="M169.516 158.064H163.734V163.689H169.516V158.064Z" fill="black"/>
</g>
<defs>
<clipPath id="clip0_109_24">
<rect width="185" height="180" fill="white" transform="translate(51 54)"/>
</clipPath>
</defs>
</svg>
