<svg width="288" height="288" viewBox="0 0 288 288" fill="none" xmlns="http://www.w3.org/2000/svg">
<circle cx="144" cy="144" r="144" fill="#FFA800" fill-opacity="0.7"/>
<path d="M225.095 146.66C244.891 126.644 244.891 94.076 225.095 74.06C215.495 64.348 202.723 59 189.139 59C189.135 59 189.135 59 189.135 59C175.551 59 162.775 64.348 153.171 74.06L143.971 83.36L134.771 74.06C125.167 64.348 112.395 59 98.807 59C85.223 59 72.451 64.348 62.847 74.06C43.051 94.076 43.051 126.644 62.847 146.66L143.971 228.688L225.095 146.66ZM68.535 79.684C76.623 71.504 87.379 67 98.807 67C110.239 67 120.995 71.504 129.083 79.684L143.971 94.74L158.859 79.684C166.947 71.504 177.703 67 189.135 67C200.567 67 211.319 71.504 219.407 79.684C236.139 96.6 236.139 124.12 219.407 141.036L143.971 217.312L68.535 141.036C51.803 124.12 51.803 96.596 68.535 79.684Z" fill="black"/>
</svg>
